<svg xmlns="http://www.w3.org/2000/svg" viewBox="0 0 512 512">
  <defs>
    <linearGradient id="mainGrad" x1="0%" y1="0%" x2="100%" y2="100%">
      <stop offset="0%" style="stop-color:#3498db;stop-opacity:1" />
      <stop offset="100%" style="stop-color:#00f2fe;stop-opacity:1" />
    </linearGradient>
  </defs>
  
  <!-- Background: Rounded Square (App Icon Style) -->
  <rect width="512" height="512" rx="100" fill="#2c3e50" />
  
  <!-- Main Logo Shape: Stylized 'G' forming a controller/link feel -->
  <path d="M256 120c-75.1 0-136 60.9-136 136 0 75.1 60.9 136 136 136 37.5 0 71.5-15.2 96.2-39.8l-45.3-45.3c-13.6 13.6-32.3 22-52.9 22-41.4 0-75-33.6-75-75 0-41.4 33.6-75 75-75 20.6 0 39.3 8.4 52.9 22l45.3-45.3C327.5 135.2 293.5 120 256 120z" fill="url(#mainGrad)"/>
  
  <!-- Decorative/Gaming Elements -->
  <!-- A "Play" triangle or directional arrow accent -->
  <path d="M360 256l-60-40v80z" fill="#e74c3c" />
  
  <!-- Digital/Pixel dots to represent 'loading' or 'tech' -->
  <circle cx="256" cy="90" r="12" fill="#ffffff" opacity="0.5" />
  <circle cx="256" cy="422" r="12" fill="#ffffff" opacity="0.5" />
  
  <!-- Text 'GACHI' (Optional, simple branding below, but keeping it icon-focused usually better. 
       Let's add a subtle tech ring instead) -->
  <circle cx="256" cy="256" r="200" stroke="url(#mainGrad)" stroke-width="10" fill="none" opacity="0.2" stroke-dasharray="40 20"/>

</svg>
